<svg width="434" height="492" viewBox="0 0 434 492" fill="none" xmlns="http://www.w3.org/2000/svg">
<mask id="mask0_1_2" style="mask-type:luminance" maskUnits="userSpaceOnUse" x="5" y="5" width="204" height="482">
<path d="M208.408 205.817L205.074 202.47V185.735L208.408 182.388V142.225H205.074V71.9388L208.408 68.5919V5L5 122.143V369.817L208.408 486.96V205.817Z" fill="white"/>
</mask>
<g mask="url(#mask0_1_2)">
<path d="M382.706 -37.4284L396.576 -28.9296L410.268 -37.4284M382.706 -37.4284V-54.4261M382.706 -37.4284L369.014 -28.9296L355.321 -37.4284M410.268 -37.4284V-54.4261M410.268 -37.4284L423.961 -28.9296M410.268 -54.4261L396.576 -62.9249L382.706 -54.4261M410.268 -54.4261L423.961 -62.9839L437.653 -54.4851M382.706 -54.4261L369.014 -62.9249L355.321 -54.4261M355.321 -54.4261L341.628 -62.9249L327.936 -54.4261V-37.3694L341.628 -28.8706M355.321 -54.4261V-37.3694L341.628 -28.8706M341.628 -28.8706V-11.8139M355.321 -3.49216V13.5645M355.321 -3.49216L369.014 -11.8729L382.706 -3.49216M355.321 -3.49216L341.628 -11.8729L327.936 -3.49216M355.321 13.5645L369.014 22.0633M355.321 13.5645L341.628 22.0633M369.014 22.0633L382.706 13.5645M369.014 22.0633V39.12M382.706 13.5645V-3.49216M382.706 13.5645L396.576 22.0633M382.706 -3.49216L396.576 -11.8729L410.268 -3.49216M396.576 22.0633L410.268 13.5645M396.576 22.0633V39.12M410.268 13.5645V-3.49216M410.268 13.5645L423.961 22.0633M410.268 -3.49216L423.961 -11.8729M396.576 -28.8706V-11.8139M369.014 -28.8706V-11.8139M437.653 -54.4851L451.346 -62.9839L465.038 -54.4851M437.653 -54.4851V-37.4284M465.038 -54.4851L478.731 -62.9839L492.424 -54.4851V-37.4284M465.038 -54.4851V-37.4284M492.424 -37.4284L506.116 -28.9296V-11.8729L492.424 -3.49216V13.5645M492.424 -37.4284L478.731 -28.9296M492.424 13.5645L506.116 22.0633V39.12L492.424 47.6188V64.6755M492.424 13.5645L478.731 22.0633M492.424 64.6755L506.116 73.1743V90.231L492.424 98.6118V115.668L506.116 124.167V141.224L492.424 149.723V166.779L506.116 175.278V192.335L492.424 200.716V217.772L506.116 226.271V243.328L492.424 251.827V268.883L506.116 277.382V294.439L492.424 302.82V319.876L506.116 328.375V345.432L492.424 353.931V370.987L506.116 379.486V396.543L492.424 404.924V421.98L506.116 430.479V447.536L492.424 456.034V473.091L506.116 481.59V498.647L492.424 507.027V524.084L506.116 532.583V549.64L492.424 558.138L478.731 549.64L465.038 558.138L451.346 549.64L437.653 558.138L423.961 549.64L410.268 558.138L396.576 549.64L382.706 558.138L369.014 549.64L355.321 558.138L341.628 549.64L327.936 558.138L314.243 549.64L300.551 558.138L286.858 549.64L273.166 558.138L259.473 549.64L245.604 558.138L231.911 549.64L218.218 558.138L204.526 549.64L190.833 558.138L177.141 549.64L163.448 558.138L149.756 549.64L136.063 558.138L122.371 549.64L108.678 558.138L94.9855 549.64L81.2929 558.138L67.6004 549.64L53.7308 558.138L40.0383 549.64L26.3457 558.138L12.6531 549.64L-1.03941 558.138L-14.732 549.64L-28.4245 558.138L-42.117 549.64L-55.8096 558.138L-69.5021 549.64L-83.6078 558.079L-97.3004 549.581L-110.993 558.079L-124.685 549.581L-138.378 558.079L-152.071 549.581V532.524L-165.763 524.025V506.968L-152.071 498.588V481.531L-165.763 473.032V455.975L-152.071 447.477V430.42L-165.763 421.921V404.864L-152.071 396.484V379.427L-165.763 370.928V353.872L-152.071 345.373V328.316L-165.763 319.817V302.761L-152.071 294.38V277.323L-165.763 268.824V251.768L-152.071 243.21V226.153L-165.763 217.654V200.598L-152.071 192.217V175.16L-165.763 166.661V149.605L-152.071 141.106V124.167L-165.763 115.668V98.6118L-152.071 90.231V73.1743L-165.763 64.6755V47.6188L-152.071 39.12V22.0633L-165.763 13.5645V-3.49216L-152.071 -11.8729V-28.8706L-165.763 -37.3694V-54.4261L-152.071 -62.9249L-138.378 -54.4261L-124.685 -62.9249L-110.993 -54.4261L-97.3004 -62.9249L-83.6078 -54.4261L-69.7382 -62.9249L-56.0457 -54.4261L-42.3531 -62.9249L-28.6606 -54.4261L-14.968 -62.9249L-1.27547 -54.4261L12.4171 -62.9249L26.1686 -54.4261L39.8612 -62.9249L53.5537 -54.4261L67.4233 -62.9249L81.1159 -54.4261L94.8084 -62.9249L108.501 -54.4261L122.194 -62.9249L135.945 -54.4261L149.638 -62.9249L163.33 -54.4261M492.424 64.6755L478.731 73.1743M163.33 -54.4261L177.023 -62.9249L190.715 -54.4261M163.33 -54.4261V-37.3694L177.023 -28.8706M190.715 -54.4261L204.408 -62.9839L218.1 -54.4851L231.793 -62.9839L245.485 -54.4851L259.355 -62.9839L273.048 -54.4851L286.74 -62.9839L300.433 -54.4851L314.184 -62.9839L327.877 -54.4851M190.715 -54.4261V-37.3694M300.492 -54.4261V-37.3694M300.492 -37.3694L314.184 -28.8706M300.492 -37.3694L286.799 -28.8706M314.184 -28.8706L327.877 -37.3694M314.184 -28.8706V-11.8139M300.492 -3.49216V13.5645M300.492 -3.49216L314.184 -11.8729L327.877 -3.49216V13.5645L314.184 22.0633M300.492 -3.49216L286.799 -11.8729L273.107 -3.49216M300.492 13.5645L314.184 22.0633M300.492 13.5645L286.799 22.0633M314.184 22.0633V39.12M273.107 -3.49216V13.5645M273.107 -3.49216L259.414 -11.8729L245.545 -3.49216M327.936 47.6188V64.6755L341.628 73.1743L355.321 64.6755M327.936 47.6188L341.628 39.12M327.936 47.6188L314.184 39.12M355.321 64.6755V47.6188M355.321 64.6755L369.014 73.1743M355.321 47.6188L341.628 39.12M355.321 47.6188L369.014 39.12M341.628 39.12V22.0633M314.184 39.12L300.492 47.6188M300.492 47.6188V64.6755M300.492 47.6188L286.799 39.12M300.492 64.6755L314.184 73.1743M300.492 64.6755L286.799 73.1743M314.184 73.1743L327.877 64.6755M314.184 73.1743V90.231M341.628 22.0633L327.936 13.5645M314.184 90.231L327.877 98.6118M314.184 90.231L300.492 98.6118M327.877 98.6118L341.569 90.231V73.1743M327.877 98.6118V115.668M369.014 39.12L382.706 47.6188M382.706 47.6188L396.576 39.12M382.706 47.6188V64.6755M396.576 39.12L410.268 47.6188M341.628 90.231L355.321 98.6118M355.321 98.6118L369.014 90.231M355.321 98.6118V115.668L369.014 124.167M369.014 90.231V73.1743M369.014 90.231L382.706 98.6118M369.014 73.1743L382.706 64.6755M382.706 64.6755L396.576 73.1743M396.576 73.1743L410.268 64.6755M396.576 73.1743V90.231M410.268 64.6755V47.6188M410.268 64.6755L423.961 73.1743M410.268 47.6188L423.961 39.12M396.576 90.231L410.268 98.6118M396.576 90.231L382.706 98.6118M410.268 98.6118L423.961 90.231M410.268 98.6118V115.668L396.576 124.167M423.961 90.231V73.1743M423.961 90.231L437.653 98.5528M423.961 73.1743L437.653 64.6755M273.107 -54.4261V-37.3694L286.799 -28.8706M286.799 -28.8706V-11.8139M218.159 -54.4261V-37.3694L231.852 -28.8706M231.852 -28.8706L245.545 -37.3694V-54.4261M231.852 -28.8706V-11.8139M245.545 -37.4284L259.414 -28.9296L273.107 -37.4284M245.545 -3.49216V13.5645M245.545 -3.49216L231.852 -11.8729L218.159 -3.49216M245.545 13.5645L259.414 22.0633M245.545 13.5645L231.852 22.0633L218.159 13.5645M259.414 22.0633L273.107 13.5645M259.414 22.0633V39.12M273.107 13.5645L286.799 22.0633M218.159 -3.49216V13.5645M218.159 -3.49216L204.408 -11.8729L190.715 -3.49216M218.159 13.5645L204.408 22.0633M259.414 -28.8706V-11.8139M190.715 -37.3694L204.408 -28.8706M190.715 -37.3694L177.023 -28.8706M204.408 -28.8706L218.1 -37.3694M204.408 -28.8706V-11.8139M177.023 -28.8706V-11.8139M177.023 22.0633L163.33 13.5645V-3.49216L177.023 -11.8729L190.715 -3.49216M177.023 22.0633L190.715 13.5645M177.023 22.0633V39.12L190.715 47.6188M190.715 13.5645V-3.49216M190.715 13.5645L204.408 22.0633M204.408 22.0633V39.12M204.408 39.12L218.1 47.6188M204.408 39.12L190.715 47.6188M218.1 47.6188L231.793 39.12V22.0633M218.1 47.6188V64.6755L204.408 73.1743M190.715 47.6188V64.6755M177.023 90.231L190.715 98.6118M177.023 90.231V73.1743L190.715 64.6755M177.023 90.231L163.33 98.6118V115.668L177.023 124.167M190.715 98.6118L204.408 90.231M190.715 98.6118V115.668L177.023 124.167M204.408 90.231V73.1743M204.408 90.231L218.1 98.6118L231.793 90.231V73.1743M204.408 73.1743L190.715 64.6755M177.023 124.167V141.224M259.414 39.12L273.107 47.6188M259.414 39.12L245.545 47.6188M273.107 47.6188L286.799 39.12M273.107 47.6188V64.6755M286.799 39.12V22.0633M218.159 64.6755L231.852 73.1743L245.545 64.6755M245.545 64.6755V47.6188M245.545 64.6755L259.414 73.1743M245.545 47.6188L231.852 39.12M259.414 90.231L273.107 98.6118M259.414 90.231V73.1743M259.414 90.231L245.545 98.6118V115.668M273.107 98.6118L286.799 90.231M273.107 98.6118V115.668M286.799 90.231V73.1743M286.799 90.231L300.492 98.6118M286.799 73.1743L273.107 64.6755M273.107 64.6755L259.414 73.1743M245.545 115.668L231.852 124.167M245.545 115.668L259.414 124.167M231.852 124.167V141.224L245.545 149.723M231.852 124.167L218.159 115.668L204.408 124.167M245.545 149.723L259.414 141.224M245.545 149.723V166.779L259.414 175.278L273.107 166.779V149.723L259.414 141.224M259.414 141.224V124.167M259.414 124.167L273.107 115.668M273.107 115.668L286.799 124.167M286.799 124.167L300.492 115.668V98.6118M286.799 124.167V141.224M273.107 166.72L286.799 175.219L300.492 166.72M300.492 166.72V149.664M300.492 166.72L314.184 175.219L327.877 166.72M300.492 149.664L286.799 141.165L273.107 149.664M300.492 149.664L314.184 141.165L327.877 149.664V166.72M204.408 124.167V141.224L218.1 149.723L231.793 141.224M204.408 124.167L190.715 115.609M218.159 115.609V98.5528M163.33 149.664L177.023 141.165L190.715 149.664M163.33 149.664V166.72L177.023 175.219L190.715 166.72M163.33 149.664L149.638 141.165M190.715 166.72V149.664M190.715 166.72L204.408 175.219L218.1 166.72V149.664M190.715 149.664L204.408 141.165M204.408 192.335L190.715 200.716M204.408 192.335L218.1 200.716V217.772L204.408 226.271L190.715 217.772V200.716M204.408 192.335V175.278M190.715 200.716L177.023 192.335V175.278M190.715 217.713L177.023 226.212V243.269L190.715 251.827L204.408 243.269M204.408 243.269V226.212M204.408 243.269L218.1 251.827L231.793 243.269V226.212M273.107 217.713V200.657L286.799 192.276L300.492 200.657M273.107 217.713L286.799 226.212M273.107 217.713L259.414 226.212M286.799 226.212L300.492 217.713M286.799 226.212V243.269L273.107 251.827L259.414 243.269V226.212M300.492 217.713V200.657M300.492 217.713L314.184 226.212M300.492 200.657L314.184 192.276L327.877 200.657M286.799 175.278V192.335M245.545 166.72L231.852 175.219M231.852 175.219V192.276L245.545 200.657M231.852 175.219L218.159 166.72M245.545 200.657L259.414 192.276V175.219M245.545 200.657V217.713M218.159 217.713L231.852 226.212L245.545 217.713M245.545 217.713L259.414 226.212M259.414 192.335L273.107 200.716M231.852 192.335L218.159 200.716M382.706 98.6118V115.668M382.706 115.668L396.576 124.167M382.706 115.668L369.014 124.167M396.576 124.167V141.224M369.014 124.167V141.224M355.321 166.72L369.014 175.219L382.706 166.72M355.321 166.72V149.664L369.014 141.165L382.706 149.664M355.321 166.72L341.628 175.219V192.276M382.706 166.72V149.664M382.706 166.72L396.576 175.219L410.268 166.72V149.664M382.706 149.664L396.576 141.165L410.268 149.664M410.268 149.664L423.961 141.165M327.877 115.668L341.569 124.167M327.877 115.668L314.184 124.167M341.569 124.167L355.262 115.668M341.569 124.167V141.224M300.492 115.609L314.184 124.167M314.184 124.167V141.224M327.877 166.72L341.569 175.219M355.321 149.723L341.628 141.224L327.936 149.723M327.877 200.657V217.713M327.877 200.657L341.569 192.276L355.262 200.657V217.713L341.569 226.212L327.877 217.713M327.877 217.713L314.184 226.212M314.184 175.278V192.335M314.184 226.212V243.269L327.877 251.768M327.877 251.768L341.569 243.21M327.877 251.768V268.765M341.569 243.21V226.153M341.569 243.21L355.262 251.768M396.576 175.278V192.335L410.268 200.716L423.961 192.335V175.278L410.268 166.779M396.576 192.276L382.706 200.657V217.713M382.706 217.713L396.576 226.212M382.706 217.713L369.014 226.212M396.576 226.212L410.268 217.713V200.657M396.576 226.212V243.269L382.706 251.827L369.014 243.269V226.212M369.014 175.278V192.335L382.706 200.716M369.014 192.276L355.321 200.657M369.014 226.212L355.321 217.713M245.545 98.5528L231.852 90.172M478.731 -28.9296L465.038 -37.4284M478.731 -28.9296V-11.8729L465.038 -3.49216M465.038 -37.4284L451.346 -28.9296M451.346 -28.9296V-11.8729M451.346 -28.9296L437.653 -37.4284M451.346 -11.8729L465.038 -3.49216M451.346 -11.8729L437.653 -3.49216M465.038 -3.49216V13.5645M492.483 -3.49216L478.79 -11.8729M423.961 -28.9296L437.653 -37.4284M423.961 -28.9296V-11.8729M423.961 22.0633L437.653 13.5645M423.961 22.0633V39.12M437.653 13.5645V-3.49216M437.653 13.5645L451.346 22.0633M437.653 -3.49216L423.961 -11.8729M451.346 22.0633V39.12M451.346 22.0633L465.038 13.5645M451.346 39.12L465.038 47.6188M451.346 39.12L437.653 47.6188M465.038 47.6188L478.731 39.12V22.0633M465.038 47.6188V64.6755M478.731 22.0633L465.038 13.5645M437.653 64.6755V47.6188M437.653 64.6755L451.346 73.1743M437.653 47.6188L423.961 39.12M451.346 73.1743V90.231L465.038 98.6118L478.731 90.231V73.1743M451.346 73.1743L465.038 64.6755M478.731 73.1743L465.038 64.6755M492.483 47.6188L478.79 39.12M465.038 98.5528V115.609M465.038 115.609L478.731 124.108M465.038 115.609L451.346 124.108M478.731 124.108L492.424 115.609M478.731 124.108V141.165L465.038 149.664M451.346 124.108V141.165M451.346 124.108L437.653 115.609M451.346 141.165L465.038 149.664M451.346 141.165L437.653 149.664M465.038 149.664V166.72M492.483 149.664L478.79 141.165M410.268 115.609L423.961 124.108M423.961 124.108L437.653 115.609M423.961 124.108V141.165M437.653 115.609V98.5528M437.653 98.5528L451.346 90.172M423.961 175.219L437.653 166.72M437.653 166.72V149.664M437.653 166.72L451.346 175.219M437.653 149.664L423.961 141.165M465.038 166.72L478.731 175.219M465.038 166.72L451.346 175.219M478.731 175.219L492.424 166.72M478.731 175.219V192.276L465.038 200.657M423.961 192.276L437.653 200.657M437.653 200.657L451.346 192.276M437.653 200.657V217.713L451.346 226.212M451.346 192.276V175.219M451.346 192.276L465.038 200.657M451.346 226.212L465.038 217.713V200.657M451.346 226.212V243.269L437.653 251.827L423.961 243.269V226.212M410.268 217.654L423.961 226.153L437.653 217.654M492.483 200.657L478.79 192.276M465.038 217.654L478.731 226.153M478.731 226.153L492.424 217.654M478.731 226.153V243.21M451.346 243.21L465.038 251.768M465.038 251.768L478.731 243.21M465.038 251.768V268.765M478.731 243.21L492.424 251.768M492.483 98.5528L478.79 90.172M478.731 277.323L465.038 268.765M478.731 277.323V294.321L465.038 302.702L451.346 294.321V277.264M478.731 277.323L492.424 268.824M465.038 268.765L451.346 277.264M451.346 277.264L437.653 268.765M492.483 302.702L478.79 294.321M437.653 251.768V268.765M437.653 268.765L423.961 277.323M410.268 268.765L396.576 277.264M410.268 268.765L423.961 277.264V294.321L410.268 302.702L396.576 294.321V277.264M410.268 268.765V251.709M396.576 277.264L382.706 268.765M410.268 251.709L396.576 243.151M410.268 251.709L423.961 243.21M451.346 294.38L437.653 302.761M437.653 302.761V319.817L451.346 328.316L465.038 319.817V302.761M437.653 302.761L423.961 294.38M396.517 294.38L382.647 302.761V319.817L396.517 328.316L410.209 319.817V302.761M451.346 345.314L437.653 353.813M451.346 345.314L465.038 353.813M451.346 345.314V328.257M437.653 353.813V370.869M437.653 353.813L423.961 345.314M437.653 370.869L451.346 379.368M437.653 370.869L423.961 379.368M451.346 379.368L465.038 370.869M451.346 379.368V396.425M465.038 370.869V353.813M465.038 370.869L478.731 379.368M465.038 353.813L478.731 345.314V328.257M437.653 319.758L423.961 328.257M423.961 328.257V345.314M423.961 328.257L410.268 319.758M423.961 345.314L410.268 353.813V370.869L423.961 379.368M423.961 379.368V396.425M423.961 396.425L437.653 404.805M423.961 396.425L410.268 404.805V421.862M437.653 404.805L451.346 396.425M437.653 404.805V421.862L423.961 430.361M451.346 396.425L465.038 404.805M478.731 328.257L465.038 319.758M478.731 328.257L492.424 319.758M492.483 353.813L478.79 345.314M465.038 404.805L478.731 396.425V379.368M465.038 404.805V421.862L478.731 430.361L492.424 421.862M478.731 379.368L492.424 370.869M492.483 455.916L478.79 447.418L465.097 455.916V472.973L478.79 481.472L492.483 472.973M478.731 447.359V430.302M465.038 421.803L451.346 430.302M451.346 430.302V447.359M451.346 430.302L437.653 421.803M451.346 447.359L465.038 455.857M451.346 447.359L437.653 455.857M410.268 421.862L423.961 430.361M410.268 421.862L396.576 430.361L382.706 421.862M423.961 430.361V447.418M423.961 481.472L437.653 472.973V455.916L423.961 447.359L410.268 455.857V472.914M423.961 481.472L410.268 472.914M423.961 481.472V498.529L437.653 506.909L451.346 498.529M410.268 472.914L396.576 481.413V498.47L410.268 506.85M451.346 498.529V481.472M451.346 498.529L465.038 506.909L478.731 498.529V481.472M437.653 472.914L451.346 481.413L465.038 472.914M410.268 506.85L423.961 498.47M410.268 506.85V523.907L423.961 532.406M423.961 532.406L437.653 523.907M423.961 532.406V549.463M437.653 523.907V506.85M437.653 523.907L451.346 532.406M478.731 549.463V532.406M478.731 532.406L465.038 523.907M478.731 532.406L492.424 523.907M465.038 523.907L451.346 532.406M465.038 523.907V506.85M451.346 532.406V549.463M492.483 506.85L478.79 498.47M492.483 404.805L478.79 396.425M382.706 251.768V268.765M382.706 268.765L369.014 277.264L355.321 268.765V251.768L369.014 243.21M382.706 302.702L369.014 294.321L355.321 302.702V319.758L369.014 328.257L382.706 319.758M369.014 294.38V277.323M327.877 268.765L341.569 277.264M327.877 268.765L314.184 277.264L300.492 268.765V251.768M341.569 277.264L355.262 268.765M341.569 277.264V294.321L327.877 302.702M314.184 243.21L300.492 251.768M300.492 251.768L286.799 243.21M300.492 319.758L314.184 328.257M300.492 319.758V302.761L314.184 294.38M300.492 319.758L286.799 328.257V345.314M314.184 328.257L327.877 319.758M314.184 328.257V345.314M327.877 319.758V302.702M327.877 319.758L341.569 328.257M327.877 302.702L314.184 294.38M314.184 294.38V277.323M286.799 345.314L300.492 353.813M286.799 345.314L273.107 353.813V370.869L286.799 379.368L300.492 370.869M327.877 353.813V370.869M327.877 353.813L341.569 345.314M327.877 353.813L314.184 345.314M327.877 370.869L341.569 379.368M327.877 370.869L314.184 379.368M341.569 379.368L355.262 370.869M341.569 379.368V396.425M355.262 370.869V353.813M355.262 370.869L368.955 379.368M355.262 353.813L341.569 345.314M355.262 353.813L368.955 345.314V328.257M341.569 345.314V328.257M355.262 319.758L341.569 328.257M314.184 345.314L300.492 353.813M300.492 353.813V370.869M300.492 370.869L314.184 379.368M314.184 379.368V396.425M314.184 396.425L327.877 404.805M314.184 396.425L300.492 404.805M327.877 404.805L341.569 396.425M327.877 404.805V421.862M341.569 396.425L355.262 404.805M396.517 328.257V345.314M396.517 345.314L410.209 353.813M396.517 345.314L382.647 353.813V370.869L396.517 379.368L410.209 370.869M382.706 370.869L369.014 379.368V396.425M369.014 396.425L382.706 404.805M369.014 396.425L355.321 404.805V421.862L369.014 430.361M382.706 404.805L396.576 396.425V379.368M382.706 404.805V421.862M382.706 353.813L369.014 345.314M341.569 294.38L355.262 302.761M259.355 243.21L245.485 251.709V268.765L259.355 277.264L273.048 268.765V251.709M259.355 277.323V294.38M259.355 294.38L273.048 302.761M259.355 294.38L245.485 302.761V319.817L259.355 328.316L273.048 319.817V302.761M273.048 302.761L286.74 294.38V277.323L273.048 268.824M218.1 251.768V268.824M218.1 268.824L231.793 277.323M218.1 268.824L204.408 277.323M231.793 277.323L245.485 268.824M231.793 277.323V294.38M245.545 302.702L231.852 294.321L218.159 302.702V319.758L231.852 328.257L245.545 319.758M204.408 277.323V294.38L218.1 302.761M204.408 277.323L190.715 268.824M177.023 243.21L163.33 251.709M163.33 251.709V268.765L177.023 277.264L190.715 268.765V251.709M163.33 251.709L149.638 243.151M190.715 302.702L177.023 294.321L163.33 302.702M190.715 302.702V319.758M190.715 302.702L204.408 294.321M163.33 302.702V319.758L177.023 328.257M163.33 302.702L149.638 294.321M177.023 328.257L190.715 319.758M177.023 328.257V345.314M190.715 319.758L204.408 328.257M177.023 277.323V294.38M204.408 345.314L190.715 353.813M204.408 345.314L218.1 353.813M204.408 345.314V328.257M190.715 353.813V370.869M190.715 353.813L177.023 345.314M190.715 370.869L204.408 379.368M190.715 370.869L177.023 379.368M204.408 379.368L218.1 370.869M204.408 379.368V396.425M218.1 370.869V353.813M218.1 370.869L231.793 379.368M218.1 353.813L231.793 345.314M218.1 319.758L204.408 328.257M177.023 345.314L163.33 353.813M177.023 379.368V396.425M177.023 379.368L163.33 370.869M177.023 396.425L190.715 404.805M177.023 396.425L163.33 404.805V421.862L177.023 430.361M190.715 404.805L204.408 396.425M190.715 404.805V421.862M204.408 396.425L218.1 404.805M231.793 328.257V345.314M231.793 345.314L245.485 353.813L259.355 345.314M259.355 345.314V328.257M259.355 345.314L273.048 353.813M231.793 396.425L245.485 404.805L259.355 396.425M259.355 396.425V379.368M259.355 396.425L273.048 404.805M259.355 379.368L245.545 370.869M259.355 379.368L273.048 370.869M245.545 370.869L231.852 379.368V396.425L218.159 404.805V421.862L231.852 430.361L245.545 421.862M245.545 370.869V353.813M245.545 421.862V404.805M245.545 421.862L259.414 430.361M273.048 404.805L286.74 396.425V379.368M273.048 404.805V421.862M273.048 319.758L286.74 328.257M273.048 421.862L259.355 430.361V447.418M273.048 421.862L286.74 430.361V447.418L273.048 455.916M259.355 447.418L273.048 455.916M259.355 447.418L245.485 455.916V472.973L259.355 481.472M273.048 455.916V472.973M259.355 481.472L273.048 472.973M259.355 481.472V498.529M273.048 472.973L286.74 481.472V498.529L273.048 506.909M245.545 455.916L231.852 447.418L218.159 455.916V472.973L231.852 481.472L245.545 472.973M259.355 498.529L273.048 506.909M259.355 498.529L245.485 506.909M273.048 506.909V523.966M231.793 447.418V430.361M190.715 421.862L204.408 430.361M190.715 421.862L177.023 430.361M204.408 430.361L218.1 421.862M204.408 430.361V447.418M177.023 430.361V447.418M177.023 447.418L163.33 455.916M177.023 447.418L190.715 455.916M163.33 455.916V472.973L177.023 481.472M163.33 455.916L149.638 447.418L135.945 455.916M177.023 481.472L190.715 472.973M177.023 481.472V498.529L190.715 506.909L204.408 498.529M190.715 472.973V455.916M190.715 472.973L204.408 481.472M190.715 455.916L204.408 447.418M218.1 472.973L204.408 481.472M204.408 481.472V498.529M204.408 498.529L218.1 506.909L231.793 498.529M231.793 498.529V481.472M231.793 498.529L245.485 506.909M204.408 447.418L218.1 455.916M204.408 549.463V532.406L190.715 523.907M190.715 523.907L177.023 532.406M190.715 523.907V506.85M177.023 532.406V549.463M177.023 532.406L163.33 523.907M231.793 549.463V532.406L218.1 523.907M218.1 523.907L204.408 532.465M218.1 523.907V506.85M231.793 532.465L245.485 523.966V506.909M259.355 549.463V532.406L245.485 523.907M314.184 549.463V532.406L300.492 523.907L286.799 532.406V549.463M273.048 523.966L286.74 532.465M273.048 523.966L259.355 532.465M382.706 421.862L369.014 430.361M369.014 430.361V447.418M369.014 481.472L382.706 472.973M369.014 481.472L355.321 472.973V455.916L369.014 447.418M369.014 481.472V498.529L382.706 506.909L396.576 498.529M382.706 472.973V455.916M382.706 472.973L396.576 481.472M382.706 455.916L369.014 447.418M382.706 455.916L396.576 447.418L410.268 455.916M396.517 447.418V430.361M327.877 421.862L341.569 430.361M327.877 421.862L314.184 430.361M341.569 430.361L355.262 421.862M341.569 430.361V447.418M300.492 404.805V421.862M300.492 404.805L286.799 396.425M300.492 421.862L314.184 430.361M300.492 421.862L286.799 430.361M314.184 430.361V447.418M300.492 455.916V472.973M300.492 455.916L314.184 447.418M300.492 455.916L286.799 447.418M300.492 472.973L314.184 481.472M300.492 472.973L286.799 481.472M314.184 481.472L327.877 472.973M314.184 481.472V498.529M327.877 472.973V455.916M327.877 472.973L341.569 481.472M327.877 455.916L314.184 447.418M327.877 455.916L341.569 447.418M355.262 455.916L341.569 447.418M341.569 481.472L355.262 472.973M341.569 481.472V498.529M314.184 498.529L327.877 506.909L341.569 498.529M314.184 498.529L300.492 506.909V523.966M341.569 498.529L355.262 506.909M341.569 549.463V532.406L327.877 523.907M327.877 523.907L314.184 532.465M327.877 523.907V506.85M355.262 506.909L368.955 498.529M355.262 506.909V523.966M355.262 523.966L368.955 532.465L382.647 523.966V506.909M355.262 523.966L341.569 532.465M369.014 532.465V549.522M396.517 549.463V532.406L382.647 523.907M300.492 302.702L286.799 294.321M286.799 277.323L300.492 268.824M300.492 506.85L286.799 498.47M396.517 532.465L410.209 523.966M410.209 404.805L396.517 396.425M245.545 251.768L231.852 243.21M-111.052 -54.4851V-37.4284M-111.052 -37.4284L-97.3594 -28.9296M-111.052 -37.4284L-124.744 -28.9296M-97.3594 -28.9296L-83.6078 -37.4284M-97.3594 -28.9296V-11.8729M-83.6078 -37.4284V-54.4851M-83.6078 -37.4284L-69.7382 -28.9296L-56.0457 -37.4284V-54.4851M-138.437 -54.4851V-37.4284M-138.437 -37.4284L-124.744 -28.9296M-138.437 -37.4284L-152.13 -28.9296M-124.744 -28.9296V-11.8729M-124.744 -11.8729L-138.437 -3.49216M-124.744 -11.8729L-111.052 -3.49216M-138.437 -3.49216V13.5645M-138.437 -3.49216L-152.13 -11.8729M-138.437 13.5645L-124.744 22.0633M-138.437 13.5645L-152.13 22.0633M-124.744 22.0633L-111.052 13.5645V-3.49216M-124.744 22.0633V39.12L-111.052 47.6188M-111.052 -3.49216L-97.3594 -11.8729M-111.052 13.5055L-97.3594 22.0633M-97.3594 22.0633L-83.6078 13.5055M-97.3594 22.0633V39.061M-83.6078 13.5055V-3.49216M-83.6078 13.5055L-69.7972 22.0633M-83.6078 -3.49216L-97.3594 -11.8729M-83.6078 -3.49216L-69.7972 -11.8729M-69.7972 22.0633L-56.1047 13.5645V-3.49216M-69.7972 22.0633V39.12M-56.1047 -3.49216L-69.7972 -11.8729M-56.1047 -3.49216L-42.4121 -11.8729L-28.7196 -3.49216V13.5055L-42.4121 22.0043L-56.1047 13.5055M-69.7972 -11.8729V-28.9296M-152.13 73.1743L-138.437 64.6755V47.6188L-152.13 39.12M-97.3594 39.061L-111.052 47.5598V64.6165M-97.3594 39.061L-83.6078 47.5598V64.6165M-111.052 64.6165L-97.3594 73.1153M-111.052 64.6165L-124.744 73.1153M-97.3594 73.1153L-83.6078 64.6165M-97.3594 73.1153V90.172L-111.052 98.5528M-83.6078 64.6165L-69.7382 73.1153L-56.0457 64.6165V47.5598L-69.7382 39.061L-83.6078 47.6188M-124.744 73.1153V90.172M-124.744 73.1153L-138.437 64.6165M-124.744 90.172L-111.052 98.5528M-124.744 90.172L-138.437 98.5528M-111.052 98.5528V115.609M-69.7972 73.1743V90.231L-56.1047 98.6118L-42.4121 90.231V73.1743L-56.1047 64.6755M-124.744 39.061L-138.437 47.5598M-83.6078 115.609L-97.3004 124.108V141.165L-83.6078 149.664M-83.6078 115.609L-69.7382 124.108V141.165M-83.6078 115.609V98.5528M-83.6078 149.664L-69.7382 141.165M-83.6078 149.664V166.72M-69.7382 141.165L-56.0457 149.664V166.72L-69.7382 175.219L-83.6078 166.72M-69.7972 90.172L-83.6078 98.5528M-83.6078 98.5528L-97.3004 90.172M-138.437 98.5528V115.609M-138.437 98.5528L-152.13 90.172M-138.437 115.609L-124.744 124.108M-138.437 115.609L-152.13 124.108M-124.744 124.108L-111.052 115.609M-124.744 124.108V141.165M-111.052 115.609L-97.3594 124.108M-111.052 149.664L-124.744 141.165M-111.052 149.664V166.72M-111.052 149.664L-97.3594 141.165M-124.744 141.165L-138.437 149.664M-138.437 149.664V166.72M-138.437 149.664L-152.13 141.165M-138.437 166.72L-124.744 175.219M-138.437 166.72L-152.13 175.219M-124.744 175.219L-111.052 166.72M-124.744 175.219V192.276M-111.052 166.72L-97.3594 175.219M-83.6078 166.72L-97.3004 175.219V192.276L-83.6078 200.598M-152.13 226.153L-138.437 217.654M-138.437 217.654V200.598L-152.13 192.217M-138.437 217.654L-124.744 226.153M-83.6078 200.598V217.654M-83.6078 200.598L-69.7382 192.217L-56.0457 200.598M-83.6078 217.654L-69.7382 226.153L-56.0457 217.654V200.598M-83.6078 217.654L-97.3594 226.153M-56.0457 200.598L-42.3531 192.217L-28.6606 200.598M-69.7972 175.219V192.276M-124.744 192.276L-111.052 200.657L-97.3594 192.276M-124.744 192.276L-138.437 200.657M-124.744 226.153V243.21M-124.744 226.153L-111.052 217.654M-124.744 243.21L-111.052 251.768M-124.744 243.21L-138.437 251.768V268.765L-124.744 277.264L-111.052 268.765M-111.052 251.768L-97.3594 243.21V226.153M-111.052 251.768V268.765M-97.3594 226.153L-111.052 217.654M-111.052 217.654V200.598M-69.7972 226.153V243.21M-69.7972 243.21L-56.1047 251.768L-42.4121 243.21V226.153L-56.1047 217.654M-69.7972 243.21L-83.6078 251.709M135.886 -54.4851V-37.4284M135.886 -37.4284L149.579 -28.9296M135.886 -37.4284L122.194 -28.9296M149.579 -28.9296L163.271 -37.4284M149.579 -28.9296V-11.8729M108.501 -54.4851V-37.4284M108.501 -37.4284L122.194 -28.9296M108.501 -37.4284L94.8084 -28.9296M122.194 -28.9296V-11.8729M122.194 -11.8729L108.501 -3.49216V13.5645L122.194 22.0633L135.886 13.5645V-3.55117L122.194 -11.8729ZM163.33 -3.55117L149.638 -11.932L135.945 -3.55117M81.1159 -54.4851V-37.4284M81.1159 -37.4284L94.8084 -28.9296M81.1159 -37.4284L67.4233 -28.9296L53.5537 -37.4284V-54.4851M94.8084 -28.9296V-11.8729M53.5537 -3.55117V13.5055M53.5537 -3.55117L67.4233 -11.932L81.1159 -3.55117M53.5537 -3.55117L39.8612 -11.932L26.1686 -3.55117M53.5537 13.5055L67.4233 22.0043L81.1159 13.5055M53.5537 13.5055L39.8612 22.0633V39.12L53.5537 47.6188M81.1159 13.5055V-3.55117M81.1159 13.5055L94.8084 22.0043M81.1159 -3.55117L94.8084 -11.932L108.501 -3.55117M67.3643 -28.9296V-11.8729M108.501 13.5055L94.8084 22.0043M94.8084 22.0043V39.061M94.8084 39.061L108.501 47.5598M94.8084 39.061L81.1159 47.5598V64.6165M108.501 47.5598L122.194 39.061M108.501 47.5598V64.6165L94.8084 73.1153M122.194 39.061V22.0043M122.194 39.061L135.886 47.5598M81.1159 64.6165L94.8084 73.1153M81.1159 64.6165L67.4233 73.1153V90.172L81.1159 98.5528M94.8084 73.1153V90.172M53.5537 47.6188L67.4233 39.12M53.5537 47.6188V64.6755L67.4233 73.1743M67.4233 39.12V22.0633M67.4233 39.12L81.1159 47.6188M81.1159 98.5528L94.8084 90.172M81.1159 98.5528V115.609M94.8084 90.172L108.501 98.5528M135.886 13.5055L149.579 22.0043L163.271 13.5055M149.579 39.061L135.886 47.5598M149.579 39.061L163.271 47.5598V64.6165L149.579 73.1153M149.579 39.061V22.0633M135.886 47.5598V64.6165M135.886 64.6165L149.579 73.1153M135.886 64.6165L122.194 73.1153V90.172M149.579 73.1153V90.172L135.886 98.5528M122.194 90.172L135.886 98.5528M122.194 90.172L108.501 98.5528M135.886 98.5528V115.609M122.194 73.1743L108.501 64.6755M26.1096 -54.4851V-37.4284M26.1096 -37.4284L39.8022 -28.9296L53.4947 -37.4284M26.1096 -37.4284L12.4171 -28.9296M-1.27547 -54.4851V-37.4284M-1.27547 -37.4284L12.4171 -28.9296M-1.27547 -37.4284L-14.968 -28.9296M12.4171 -28.9296V-11.8729M-1.27547 -3.49216V13.5645L12.4171 22.0633M-1.27547 -3.49216L12.4171 -11.8729M-1.27547 -3.49216L-14.968 -11.8729M12.4171 22.0633L26.1096 13.5645V-3.49216L12.4171 -11.8729M12.4171 22.0633V39.12L-1.27547 47.6188L-14.968 39.12V22.0633M-14.968 -11.8729L-28.6606 -3.49216M-14.968 -11.8729V-28.9296M39.8612 -28.9296V-11.8729M-28.6606 -54.4851V-37.4284L-14.968 -28.9296M-56.1047 -37.4284L-42.4121 -28.9296L-28.7196 -37.4284M-42.3531 -28.9296V-11.8729M-28.6606 13.5055L-14.968 22.0043L-1.27547 13.5055M-14.968 39.061L-28.6606 47.5598V64.6165L-14.968 73.1153L-1.27547 64.6165V47.5598M-56.1047 47.6188L-42.4121 39.12V22.0633M-14.968 73.1743V90.231L-1.27547 98.6118L12.4171 90.231V73.1743M12.4171 73.1743L-1.27547 64.6755M12.4171 73.1743L26.1096 64.6755M-28.6606 47.6188L-42.3531 39.12M-42.3531 73.1743L-28.6606 64.6755M26.1096 13.5055L39.8022 22.0043M39.8612 39.061L26.1686 47.5598V64.6165L39.8612 73.1153L53.5537 64.6165M12.4171 90.172L26.1096 98.5528M26.1096 98.5528L39.8022 90.172M26.1096 98.5528V115.609M39.8022 90.172V73.1153M39.8022 90.172L53.4947 98.5528M12.4171 39.061L26.1096 47.5598M26.1096 115.609L39.8022 124.108L53.4947 115.609V98.5528M26.1096 115.609L12.4171 124.108M53.4947 98.5528L67.3643 90.172M-1.27547 98.5528V115.609M-1.27547 115.609L12.4171 124.108M-1.27547 115.609L-14.968 124.108M12.4171 124.108V141.165M-1.27547 166.72L12.4171 175.219M-1.27547 166.72V149.664M-1.27547 166.72L-14.968 175.219M12.4171 175.219L26.1096 166.72M12.4171 175.219V192.276M26.1096 166.72V149.664M26.1096 166.72L39.8022 175.219L53.4947 166.72V149.664M26.1096 149.664L12.4171 141.165M26.1096 149.664L39.8022 141.165L53.4947 149.664M12.4171 141.165L-1.27547 149.664M-1.27547 149.664L-14.968 141.165M-14.968 175.219V192.276M-14.968 175.219L-28.6606 166.72M53.4947 149.664L67.3643 141.165M39.8612 124.108V141.165M-14.968 90.172L-28.6606 98.5528M-28.6606 98.5528V115.609L-14.968 124.108M-28.6606 98.5528L-42.3531 90.172M-14.968 124.108V141.165M-56.1047 98.5528V115.609M-56.1047 115.609L-42.4121 124.108L-28.7196 115.609M-56.1047 115.609L-69.7972 124.108M-56.1047 166.72L-42.4121 175.219L-28.7196 166.72V149.664L-42.4121 141.165L-56.1047 149.664M-14.968 141.165L-28.6606 149.664M-42.3531 124.108V141.165M-28.6606 200.598V217.654L-14.968 226.153L-1.27547 217.654M-28.6606 200.598L-14.968 192.217L-1.27547 200.598M-1.27547 217.654V200.598M-1.27547 217.654L12.4171 226.153V243.21M-1.27547 200.598L12.4171 192.217L26.1096 200.598M-42.3531 175.219V192.276M-14.968 226.212V243.269L-1.27547 251.768M-1.27547 251.768L12.4171 243.21M-1.27547 251.768V268.765M12.4171 243.21L26.1096 251.768M-42.3531 226.212L-28.6606 217.713M39.8612 175.219V192.276M39.8612 192.276L53.5537 200.657M39.8612 192.276L26.1686 200.657V217.713L39.8612 226.212M53.5537 200.657L67.4233 192.276V175.219L53.5537 166.72M53.5537 200.657V217.713M39.8612 226.212L53.5537 217.713M39.8612 226.212V243.269L53.5537 251.827L67.4233 243.269V226.212L53.5537 217.713M12.4171 226.212L26.1096 217.713M135.886 115.609L149.579 124.108M135.886 115.609L122.194 124.108M149.579 124.108L163.271 115.609M149.579 124.108V141.165L135.886 149.664M122.194 124.108V141.165M122.194 124.108L108.501 115.609M122.194 141.165L135.886 149.664M122.194 141.165L108.501 149.664M135.886 149.664V166.72M108.501 149.664V166.72M108.501 149.664L94.8084 141.165M108.501 166.72L122.194 175.219M108.501 166.72L94.8084 175.219M122.194 175.219L135.886 166.72M122.194 175.219V192.276L108.501 200.657M135.886 166.72L149.579 175.219M81.1159 115.609L94.8084 124.108M81.1159 115.609L67.4233 124.108L53.5537 115.609M94.8084 124.108L108.501 115.609M94.8084 124.108V141.165M108.501 115.609V98.5528M67.3643 175.219L81.0569 166.72V149.664L67.3643 141.165M67.3643 141.165V124.108M94.8084 141.165L81.1159 149.664M94.8084 175.219V192.276M94.8084 175.219L81.1159 166.72M94.8084 192.276L108.501 200.657M94.8084 192.276L81.1159 200.657V217.713L94.8084 226.212M108.501 200.657V217.713L94.8084 226.212M94.8084 226.212V243.269L108.501 251.768M108.501 251.768L122.194 243.21M108.501 251.768V268.765M122.194 243.21V226.153L108.501 217.654M122.194 243.21L135.886 251.768M81.1159 200.598L67.4233 192.217M67.3643 226.212L81.0569 217.713M149.579 192.276L135.886 200.657V217.713M149.579 192.276L163.271 200.657V217.713L149.579 226.212L135.886 217.713M149.579 192.276V175.219M135.886 217.713L122.194 226.212M149.579 175.219L163.271 166.72M135.886 200.598L122.194 192.217M135.886 251.768L149.579 243.21V226.153M135.886 251.768V268.765M163.33 98.5528L149.638 90.172M135.886 268.765L149.579 277.264M135.886 268.765L122.194 277.264M149.579 277.264L163.271 268.765M149.579 277.264V294.321L135.886 302.702M122.194 277.264V294.321M122.194 277.264L108.501 268.765M122.194 294.321L135.886 302.702M122.194 294.321L108.501 302.702M135.886 302.702V319.758M108.501 302.702V319.758M108.501 302.702L94.8084 294.321M108.501 319.758L122.194 328.257M108.501 319.758L94.8084 328.257M122.194 328.257L135.886 319.758M122.194 328.257V345.314M135.886 319.758L149.579 328.257M108.501 268.765L94.8084 277.264V294.321M94.8084 294.321L81.1159 302.702L67.4233 294.321V277.264M94.8084 277.323L81.1159 268.765M81.1159 268.765L67.4233 277.264M81.1159 268.765V251.709L67.4233 243.151M67.4233 277.264L53.5537 268.765M53.5537 251.768V268.765M53.5537 268.765L39.8612 277.264L26.1686 268.765V251.709L39.8612 243.21M67.3643 294.321L53.4947 302.702V319.758L67.3643 328.257M67.3643 328.257L81.0569 319.758V302.702M67.3643 328.257V345.314M81.1159 353.813V370.869M81.1159 353.813L94.8084 345.314M81.1159 353.813L67.4233 345.314L53.5537 353.813M81.1159 370.869L94.8084 379.368M81.1159 370.869L67.4233 379.368M94.8084 379.368L108.501 370.869M94.8084 379.368V396.425M108.501 370.869V353.813M108.501 370.869L122.194 379.368M108.501 353.813L94.8084 345.314M108.501 353.813L122.194 345.314M94.8084 345.314V328.257M53.5537 353.813V370.869M53.5537 353.813L39.8612 345.314M53.5537 370.869L67.4233 379.368M53.5537 370.869L39.8612 379.368M67.4233 379.368V396.425L53.5537 404.805L39.8612 396.425M94.8084 328.257L81.1159 319.758M39.8612 379.368V396.425M39.8612 379.368L26.1686 370.869V353.813L39.8612 345.314M39.8612 396.425L26.1686 404.805M94.8084 396.425L108.501 404.805L122.194 396.425M94.8084 396.425L81.1159 404.805V421.862L94.8084 430.361L108.501 421.862M122.194 396.425V379.368M122.194 396.425L135.886 404.805L149.579 396.425V379.368M122.194 379.368L135.886 370.869M149.579 345.314L135.886 353.813M149.579 345.314L163.271 353.813V370.869L149.579 379.368M149.579 345.314V328.257M135.886 353.813V370.869M135.886 353.813L122.194 345.314M135.886 370.869L149.579 379.368M149.579 328.257L163.271 319.758M-1.27547 268.765L12.4171 277.264M-1.27547 268.765L-14.968 277.264M12.4171 277.264L26.1096 268.765M12.4171 277.264V294.321L-1.27547 302.702L-14.968 294.321V277.264M-14.968 277.264L-28.6606 268.765V251.709M-14.968 294.38L-28.6606 302.761V319.817L-14.968 328.316L-1.27547 319.817V302.761M53.5537 302.702L39.8612 294.321L26.1686 302.702V319.758L39.8612 328.257M39.8612 328.257L53.5537 319.758M39.8612 328.257V345.314M39.8612 277.323V294.38M12.4171 294.38L26.1096 302.761M-14.968 243.21L-28.6606 251.709M-28.6606 251.709L-42.3531 243.151M-56.1047 268.765L-69.7972 277.264V294.321M-56.1047 268.765L-42.4121 277.264V294.321L-56.1047 302.702M-56.1047 268.765V251.709M-69.7972 294.321L-56.1047 302.702M-69.7972 294.321L-83.6078 302.702M-56.1047 302.702V319.758M-56.1047 319.758L-42.4121 328.257L-28.7196 319.758M-56.1047 319.758L-69.7972 328.257M-28.6606 302.702L-42.3531 294.321M-42.3531 277.323L-28.6606 268.824M-28.6606 353.813V370.869M-28.6606 353.813L-14.968 345.314M-28.6606 353.813L-42.3531 345.314M-28.6606 370.869L-14.968 379.368M-28.6606 370.869L-42.3531 379.368L-56.0457 370.869V353.813M-14.968 379.368L-1.27547 370.869M-14.968 379.368V396.425M-1.27547 370.869V353.813M-1.27547 370.869L12.4171 379.368M-1.27547 353.813L-14.968 345.314M-1.27547 353.813L12.4171 345.314M-14.968 345.314V328.257M-42.3531 328.257V345.314M-42.3531 345.314L-56.0457 353.813M-56.0457 353.813L-69.7382 345.314M-56.1047 370.869L-69.7972 379.368V396.425M-69.7972 396.425L-56.1047 404.805M-69.7972 396.425L-83.6078 404.746M-56.1047 404.805L-42.4121 396.425M-56.1047 404.805V421.862L-42.4121 430.361L-28.7196 421.862V404.805L-42.4121 396.425M-42.4121 396.425V379.368M-14.968 396.425L-1.27547 404.805M-14.968 396.425L-28.6606 404.805M-1.27547 404.805L12.4171 396.425M-1.27547 404.805V421.862L12.4171 430.361M12.4171 396.425V379.368M12.4171 396.425L26.1096 404.805V421.862L12.4171 430.361M12.4171 379.368L26.1096 370.869M26.1096 353.813L12.4171 345.314M12.4171 345.314V328.257M26.1096 319.758L12.4171 328.257M12.4171 328.257L-1.27547 319.758M12.4171 430.361V447.418M26.1096 421.803L39.8022 430.302L53.4947 421.803V404.746M26.1096 472.914L12.4171 481.413L-1.27547 472.914V455.857L12.4171 447.359L26.1096 455.857M26.1096 472.914V455.857M26.1096 472.914L39.8022 481.413L53.4947 472.914V455.857L39.8022 447.359L26.1096 455.857M39.8612 430.361V447.418M-28.6606 421.803L-14.968 430.302L-1.27547 421.803M-56.1047 421.803L-69.7972 430.302V447.359M-69.7972 447.359L-56.1047 455.857L-42.4121 447.359V430.302M-69.7972 447.359L-83.6078 455.916M-83.6078 455.916V472.973L-69.7382 481.472L-56.0457 472.973V455.916M-83.6078 455.916L-97.3004 447.418M-69.7972 481.472V498.529L-56.1047 506.909L-42.4121 498.529V481.472L-56.1047 472.973M-1.27547 455.916L-14.968 447.418M-14.968 447.418L-28.6606 455.916M-14.968 447.418V430.361M-28.6606 455.916V472.973M-28.6606 455.916L-42.3531 447.418M-28.6606 472.973L-14.968 481.472M-28.6606 472.973L-42.3531 481.472M-14.968 481.472L-1.27547 472.973M-14.968 481.472V498.529M-28.6606 506.85V523.907L-14.968 532.406M-28.6606 506.85L-14.968 498.47L-1.27547 506.85M-28.6606 506.85L-42.3531 498.47M-14.968 532.406L-1.27547 523.907M-14.968 532.406V549.463M-1.27547 523.907V506.85M-1.27547 523.907L12.4171 532.406M-1.27547 506.85L12.4171 498.47M-56.1047 506.85V523.907L-42.4121 532.406L-28.7196 523.907M-42.3531 532.406V549.463M12.4171 481.472V498.529L26.1096 506.909L39.8022 498.529V481.472M12.4171 532.406L26.1096 523.907V506.85M12.4171 532.406V549.463M39.8612 549.463V532.406M39.8612 532.406L26.1686 523.907M39.8612 532.406L53.5537 523.907M135.886 404.746V421.803M135.886 421.803L149.579 430.302M135.886 421.803L122.194 430.302M149.579 430.302L163.271 421.803M149.579 430.302V447.359M108.501 404.746V421.803L122.194 430.302M122.194 430.302V447.359M122.194 447.359L108.501 455.857V472.914M122.194 447.359L135.886 455.857V472.914M108.501 472.914L122.194 481.413M108.501 472.914L94.8084 481.413V498.47L108.501 506.85M122.194 481.413L135.886 472.914M122.194 481.413V498.47M135.886 472.914L149.579 481.413M149.579 481.413L163.271 472.914M149.579 481.413V498.47M53.5537 421.803L67.4233 430.302L81.1159 421.803M53.5537 472.914L67.4233 481.413L81.1159 472.914V455.857L67.4233 447.359L53.5537 455.857M108.501 506.85L122.194 498.47M108.501 506.85V523.907M122.194 498.47L135.886 506.85M108.501 455.916L94.8084 447.418L81.1159 455.916M94.8084 481.472L81.1159 472.973M67.3643 447.359V430.302M94.8084 430.302V447.359M67.3643 481.472V498.529L81.0569 506.909L94.7494 498.529M39.8612 498.47L53.5537 506.85M53.5537 506.85L67.4233 498.47M53.5537 506.85V523.907M53.5537 523.907L67.4233 532.406L81.1159 523.907M81.1159 523.907V506.85M81.1159 523.907L94.8084 532.406M67.3643 532.406V549.463M122.194 549.463V532.406M122.194 532.406L108.501 523.907M122.194 532.406L135.886 523.907M108.501 523.907L94.8084 532.406M94.8084 532.406V549.463M149.579 498.47L135.886 506.85M149.579 498.47L163.271 506.85V523.907L149.579 532.406M135.886 506.85V523.907M135.886 523.907L149.579 532.406M149.579 532.406V549.463M81.1159 404.746L67.4233 396.366M163.33 404.746L149.638 396.366M-111.052 268.765L-97.3594 277.264L-83.6078 268.765M-83.6078 268.765V251.709M-83.6078 268.765L-69.7382 277.264M-83.6078 251.709L-97.3004 243.151M-138.437 302.702L-124.744 294.321L-111.052 302.702V319.758M-138.437 302.702V319.758M-138.437 302.702L-152.13 294.321M-138.437 319.758L-124.744 328.257M-138.437 319.758L-152.13 328.257M-124.744 328.257L-111.052 319.758M-124.744 328.257V345.314M-111.052 319.758L-97.3594 328.257L-83.6078 319.758M-83.6078 319.758V302.702M-83.6078 319.758L-69.7382 328.257V345.314M-83.6078 302.702L-97.3004 294.321M-97.3004 294.321L-110.993 302.702M-97.3004 294.321V277.264M-124.744 277.323V294.38M-152.13 277.323L-138.437 268.824M-152.13 379.368L-138.437 370.869M-138.437 370.869V353.813M-138.437 370.869L-124.744 379.368M-138.437 353.813L-152.13 345.314M-138.437 353.813L-124.744 345.314M-97.3004 328.257V345.314L-83.6078 353.813M-83.6078 353.813L-69.7382 345.314M-83.6078 353.813V370.869M-124.744 345.314L-111.052 353.813M-111.052 353.813L-97.3594 345.314M-111.052 353.813V370.869M-124.744 396.425L-111.052 404.805L-97.3594 396.425V379.368L-111.052 370.869M-124.744 396.425V379.368M-124.744 396.425L-138.437 404.805M-111.052 370.869L-124.744 379.368M-97.3004 379.368L-83.6078 370.869M-83.6078 370.869L-69.7382 379.368M-111.052 404.746V421.803M-111.052 421.803L-97.3594 430.302M-111.052 421.803L-124.744 430.302M-97.3594 430.302L-83.6078 421.803M-97.3594 430.302V447.359L-111.052 455.857M-83.6078 421.803V404.746M-83.6078 421.803L-69.7382 430.302M-83.6078 404.746L-97.3004 396.366M-124.744 430.302V447.359M-124.744 430.302L-138.437 421.803M-124.744 447.359L-111.052 455.857M-124.744 447.359L-138.437 455.857M-111.052 455.857V472.914M-138.437 455.857V472.914L-124.744 481.413M-138.437 455.857L-152.13 447.359M-124.744 481.413L-111.052 472.914M-124.744 481.413V498.47M-111.052 472.914L-97.3594 481.413L-83.6078 472.914M-152.13 430.302L-138.437 421.803M-138.437 421.803V404.746L-152.13 396.366M-152.13 481.472L-138.437 472.973M-152.13 532.406L-138.437 523.907M-138.437 523.907V506.85M-138.437 523.907L-124.744 532.406M-138.437 506.85L-152.13 498.47M-138.437 506.85L-124.744 498.47M-69.7972 498.47L-83.6078 506.85M-83.6078 506.85V523.907M-83.6078 506.85L-97.3004 498.47M-83.6078 523.907L-69.7382 532.406L-56.0457 523.907M-83.6078 523.907L-97.3004 532.406M-97.3004 498.47L-110.993 506.85V523.907L-97.3004 532.406M-97.3004 498.47V481.413M-97.3004 532.406V549.463M-124.744 498.47L-111.052 506.85M-111.052 523.907L-124.744 532.406M-124.744 532.406V549.463M-69.7972 549.463V532.406M-138.437 251.709L-152.13 243.151M94.8084 243.21L81.1159 251.768M163.33 64.6165L177.023 73.1153M177.023 39.061L163.33 47.5598M177.023 498.47L163.33 506.85M163.33 217.654L177.023 226.153M177.023 192.276L163.33 200.657" stroke="#989898" stroke-width="2.0228" stroke-miterlimit="1" stroke-linecap="square"/>
</g>
<path d="M208.408 205.817L205.074 202.47V185.735L208.408 182.388V142.225H205.074V71.9388L208.408 68.5919V5L5 122.143V369.817L208.408 486.96V205.817Z" fill="#181818"/>
<path d="M225.081 5V486.96L428.49 369.817V122.143L225.081 5Z" fill="#009252"/>
<path opacity="0.07" d="M208.342 182.522L118.309 236.073V197.081L208.342 142.827V67.2197L99.9017 131.715H99.7016C99.3997 131.921 99.1102 132.144 98.8346 132.385L98.1344 132.954C97.9111 133.188 97.6996 133.434 97.5008 133.69C97.3007 133.924 97.0673 134.158 96.9006 134.426C96.7179 134.695 96.5509 134.975 96.4004 135.263C96.242 135.534 96.0973 135.814 95.9669 136.1C95.9669 136.401 95.7335 136.702 95.6335 137.037C95.5293 137.333 95.4402 137.635 95.3667 137.941C95.3509 138.242 95.3509 138.543 95.3667 138.844C95.3477 139.201 95.3477 139.558 95.3667 139.915V140.183V309.572C85.9462 308.247 76.3812 310.647 68.6902 316.266C52.5509 327.043 47.0822 347.325 55.3519 359.776C63.6216 372.226 82.662 372.829 98.7013 362.052C107.905 355.893 116.641 348.43 118.709 339.694C118.919 337.468 118.919 335.227 118.709 333C118.709 332.532 118.709 332.063 118.709 331.595V259.368L208.742 205.314L208.342 182.522Z" fill="black"/>
<path d="M208.408 192.429L118.375 245.98V205.817L208.408 152.265V75.2858L100.002 141.187H99.8017C99.4997 141.393 99.2102 141.616 98.9347 141.856L98.2344 142.425C98.011 142.66 97.7995 142.906 97.6008 143.162C97.4008 143.396 97.1673 143.63 97.0006 143.898C96.818 144.167 96.651 144.446 96.5004 144.735C96.5004 145.003 96.167 145.27 96.0669 145.572C95.9669 145.873 95.8335 146.174 95.7335 146.509C95.6294 146.805 95.5404 147.107 95.4667 147.412C95.451 147.713 95.451 148.015 95.4667 148.316C95.4478 148.673 95.4478 149.03 95.4667 149.387V149.655V319.044C86.0462 317.718 76.4812 320.119 68.7902 325.737C52.6509 336.515 47.1822 356.797 55.452 369.248C63.7217 381.698 82.762 382.301 98.8013 371.524C108.005 365.365 116.741 357.902 118.809 349.166C119.019 346.94 119.019 344.698 118.809 342.472C118.809 342.004 118.809 341.535 118.809 341.066V269.442L208.842 215.891L208.408 192.429Z" fill="#B4B39B"/>
<path d="M208.408 182.388L118.375 235.939V195.776L208.408 142.225V65.2449L99.9017 131.715H99.7016C99.3997 131.921 99.1102 132.144 98.8346 132.385L98.1344 132.954C97.9111 133.188 97.6996 133.434 97.5008 133.69C97.3007 133.924 97.0673 134.158 96.9006 134.426C96.7179 134.695 96.5509 134.975 96.4004 135.263C96.242 135.534 96.0973 135.814 95.9669 136.1C95.9669 136.401 95.7335 136.702 95.6335 137.037C95.5293 137.333 95.4402 137.635 95.3667 137.941C95.3509 138.242 95.3509 138.543 95.3667 138.844C95.3477 139.201 95.3477 139.558 95.3667 139.915V140.183V309.572C85.9462 308.247 76.3812 310.647 68.6902 316.266C52.5509 327.043 47.0822 347.325 55.3519 359.776C63.6217 372.226 82.662 372.829 98.7013 362.052C107.905 355.893 116.641 348.43 118.709 339.694C118.919 337.468 118.919 335.227 118.709 333C118.709 332.532 118.709 332.063 118.709 331.595V259.368L208.742 205.817L208.408 182.388Z" fill="#FFFEDB"/>
<mask id="mask1_1_2" style="mask-type:alpha" maskUnits="userSpaceOnUse" x="225" y="55" width="161" height="382">
<path d="M225.081 55.3379V436.622L386 343.949V148.011L225.081 55.3379Z" fill="#009252"/>
</mask>
<g mask="url(#mask1_1_2)">
<g filter="url(#filter0_d_1_2)">
<path d="M245.901 338.382L350.804 338.382L245.901 277.071L245.901 338.382ZM291.947 338.382L187.044 338.382L291.947 399.694L291.947 338.382Z" fill="#FFFEDB"/>
</g>
<g filter="url(#filter1_i_1_2)">
<circle cx="268.528" cy="339.569" r="10.2845" fill="#009252"/>
</g>
<g filter="url(#filter2_d_1_2)">
<path d="M245.901 153.609L350.804 153.609L245.901 214.92L245.901 153.609ZM291.947 153.609L187.044 153.609L291.947 92.2979L291.947 153.609Z" fill="#FFFEDB"/>
</g>
<g filter="url(#filter3_i_1_2)">
<circle cx="268.528" cy="154.796" r="10.2845" fill="#009252"/>
</g>
</g>
<g filter="url(#filter4_d_1_2)">
<path d="M336.49 212.633C337.076 209.939 338.239 207.411 339.896 205.23C341.553 203.05 343.663 201.272 346.073 200.023C348.483 198.774 351.134 198.086 353.835 198.007C356.537 197.929 359.221 198.463 361.697 199.571C364.172 200.679 366.376 202.333 368.151 204.414C369.926 206.495 371.228 208.952 371.963 211.608C372.697 214.264 372.846 217.053 372.4 219.775C371.953 222.497 370.922 225.085 369.38 227.351C373.163 231.533 377.762 234.859 382.881 237.116C388 239.372 393.525 240.508 399.1 240.451C408.578 236.302 418.701 233.903 429 233.367V245.58C419.959 246.181 411.101 248.468 402.868 252.329C392.609 257.041 383.735 264.41 377.124 273.703C377.53 274.232 377.91 274.783 378.26 275.352C380.188 278.478 381.166 282.118 381.069 285.811C380.973 289.504 379.807 293.085 377.718 296.102C375.629 299.118 372.712 301.435 369.335 302.759C365.957 304.083 362.271 304.355 358.743 303.54C355.214 302.726 352.001 300.861 349.51 298.182C347.018 295.504 345.36 292.131 344.745 288.49C344.13 284.85 344.585 281.104 346.053 277.728C347.522 274.351 349.937 271.495 352.995 269.52C357.172 266.909 362.19 266.086 366.958 267.23C371.422 260.781 376.803 255.049 382.924 250.222C373.857 247.441 365.776 242.031 359.662 234.649C357.947 235.186 356.164 235.464 354.37 235.473C351.624 235.48 348.912 234.856 346.434 233.648C343.957 232.441 341.776 230.68 340.054 228.496C338.332 226.312 337.112 223.761 336.485 221.032C335.857 218.302 335.839 215.463 336.43 212.725L336.49 212.633ZM368.094 281.856C367.586 281.036 366.901 280.347 366.091 279.841C365.26 279.322 364.324 279.007 363.354 278.919C362.385 278.832 361.409 278.974 360.502 279.336C359.596 279.698 358.783 280.269 358.129 281.005C357.475 281.741 356.996 282.621 356.73 283.578C356.464 284.534 356.418 285.54 356.597 286.517C356.775 287.494 357.172 288.416 357.757 289.21C358.342 290.005 359.1 290.65 359.969 291.096C360.839 291.541 361.798 291.776 362.772 291.78C363.959 291.774 365.12 291.425 366.121 290.772C367.532 289.85 368.53 288.397 368.9 286.728C369.269 285.059 368.98 283.308 368.094 281.856ZM349.018 220.206C349.93 221.628 351.35 222.63 352.974 223.001C354.599 223.371 356.301 223.081 357.719 222.191L358.018 222.008C358.849 221.399 359.523 220.592 359.981 219.658C360.439 218.724 360.668 217.691 360.648 216.646C360.628 215.601 360.36 214.578 359.866 213.663C359.373 212.748 358.668 211.969 357.814 211.394C356.96 210.818 355.982 210.464 354.964 210.361C353.946 210.257 352.919 210.409 351.971 210.801C351.023 211.193 350.182 211.815 349.522 212.613C348.862 213.411 348.401 214.361 348.181 215.381C347.996 216.207 347.975 217.062 348.119 217.895C348.263 218.729 348.568 219.525 349.018 220.236V220.206Z" fill="#FFFEDB"/>
</g>
<defs>
<filter id="filter0_d_1_2" x="187.044" y="277.071" width="163.76" height="128.622" filterUnits="userSpaceOnUse" color-interpolation-filters="sRGB">
<feFlood flood-opacity="0" result="BackgroundImageFix"/>
<feColorMatrix in="SourceAlpha" type="matrix" values="0 0 0 0 0 0 0 0 0 0 0 0 0 0 0 0 0 0 127 0" result="hardAlpha"/>
<feOffset dy="6"/>
<feComposite in2="hardAlpha" operator="out"/>
<feColorMatrix type="matrix" values="0 0 0 0 0.705882 0 0 0 0 0.701961 0 0 0 0 0.607843 0 0 0 1 0"/>
<feBlend mode="normal" in2="BackgroundImageFix" result="effect1_dropShadow_1_2"/>
<feBlend mode="normal" in="SourceGraphic" in2="effect1_dropShadow_1_2" result="shape"/>
</filter>
<filter id="filter1_i_1_2" x="258.244" y="329.285" width="20.5689" height="20.5689" filterUnits="userSpaceOnUse" color-interpolation-filters="sRGB">
<feFlood flood-opacity="0" result="BackgroundImageFix"/>
<feBlend mode="normal" in="SourceGraphic" in2="BackgroundImageFix" result="shape"/>
<feColorMatrix in="SourceAlpha" type="matrix" values="0 0 0 0 0 0 0 0 0 0 0 0 0 0 0 0 0 0 127 0" result="hardAlpha"/>
<feOffset dy="5"/>
<feComposite in2="hardAlpha" operator="arithmetic" k2="-1" k3="1"/>
<feColorMatrix type="matrix" values="0 0 0 0 0.705882 0 0 0 0 0.701961 0 0 0 0 0.607843 0 0 0 1 0"/>
<feBlend mode="normal" in2="shape" result="effect1_innerShadow_1_2"/>
</filter>
<filter id="filter2_d_1_2" x="187.044" y="92.2979" width="163.76" height="128.622" filterUnits="userSpaceOnUse" color-interpolation-filters="sRGB">
<feFlood flood-opacity="0" result="BackgroundImageFix"/>
<feColorMatrix in="SourceAlpha" type="matrix" values="0 0 0 0 0 0 0 0 0 0 0 0 0 0 0 0 0 0 127 0" result="hardAlpha"/>
<feOffset dy="6"/>
<feComposite in2="hardAlpha" operator="out"/>
<feColorMatrix type="matrix" values="0 0 0 0 0.705882 0 0 0 0 0.701961 0 0 0 0 0.607843 0 0 0 1 0"/>
<feBlend mode="normal" in2="BackgroundImageFix" result="effect1_dropShadow_1_2"/>
<feBlend mode="normal" in="SourceGraphic" in2="effect1_dropShadow_1_2" result="shape"/>
</filter>
<filter id="filter3_i_1_2" x="258.244" y="144.511" width="20.5689" height="20.5689" filterUnits="userSpaceOnUse" color-interpolation-filters="sRGB">
<feFlood flood-opacity="0" result="BackgroundImageFix"/>
<feBlend mode="normal" in="SourceGraphic" in2="BackgroundImageFix" result="shape"/>
<feColorMatrix in="SourceAlpha" type="matrix" values="0 0 0 0 0 0 0 0 0 0 0 0 0 0 0 0 0 0 127 0" result="hardAlpha"/>
<feOffset dy="5"/>
<feComposite in2="hardAlpha" operator="arithmetic" k2="-1" k3="1"/>
<feColorMatrix type="matrix" values="0 0 0 0 0.705882 0 0 0 0 0.701961 0 0 0 0 0.607843 0 0 0 1 0"/>
<feBlend mode="normal" in2="shape" result="effect1_innerShadow_1_2"/>
</filter>
<filter id="filter4_d_1_2" x="336" y="198" width="93" height="110" filterUnits="userSpaceOnUse" color-interpolation-filters="sRGB">
<feFlood flood-opacity="0" result="BackgroundImageFix"/>
<feColorMatrix in="SourceAlpha" type="matrix" values="0 0 0 0 0 0 0 0 0 0 0 0 0 0 0 0 0 0 127 0" result="hardAlpha"/>
<feOffset dy="4"/>
<feComposite in2="hardAlpha" operator="out"/>
<feColorMatrix type="matrix" values="0 0 0 0 0.705882 0 0 0 0 0.701961 0 0 0 0 0.607843 0 0 0 1 0"/>
<feBlend mode="normal" in2="BackgroundImageFix" result="effect1_dropShadow_1_2"/>
<feBlend mode="normal" in="SourceGraphic" in2="effect1_dropShadow_1_2" result="shape"/>
</filter>
</defs>
</svg>
